<?xml version="1.0" encoding="utf-8"?>
<!-- Generator: Adobe Illustrator 24.0.0, SVG Export Plug-In . SVG Version: 6.00 Build 0)  -->
<svg version="1.1" id="Layer_1" xmlns="http://www.w3.org/2000/svg" xmlns:xlink="http://www.w3.org/1999/xlink" x="0px" y="0px"
	 viewBox="0 0 432.7 432.7" style="enable-background:new 0 0 432.7 432.7;" xml:space="preserve">
<style type="text/css">
	.st0{fill:#FFFFFF;stroke:#000000;stroke-miterlimit:10;}
	.st1{fill:#E2E2E2;}
	.st2{fill:none;stroke:#231F20;stroke-width:3;stroke-miterlimit:10;}
	.st3{fill:#232126;}
	.st4{fill:#FFFFFF;stroke:#231F20;stroke-miterlimit:10;}
	.st5{fill:#2A454E;}
	.st6{fill:#80B3AD;}
</style>
<title>Asset 1</title>
<g id="Layer_2_1_">
	<path class="st0" d="M431.2,216.3c0,118.6-96.2,214.8-214.9,214.8c-18.4,0-36.7-2.3-54.4-7l0,0c-19.5-5.1-37.9-12.8-54.8-22.8
		c-0.6-0.4-1.3-0.8-1.9-1.1c-2.5-1.5-4.9-3.1-7.4-4.7c-1.2-0.8-2.4-1.6-3.6-2.4c-1.2-0.8-2.4-1.7-3.6-2.5c-0.6-0.4-1.2-0.9-1.8-1.3
		c-1.2-0.9-2.3-1.7-3.5-2.6c-1.1-0.9-2.3-1.8-3.4-2.7c-1.7-1.4-3.4-2.7-5-4.2c-1.1-0.9-2.2-1.9-3.3-2.8c-1.1-1-2.1-1.9-3.2-2.9
		C28.1,334.9,1.5,278.7,1.5,216.3c0-10.4,0.8-20.9,2.3-31.2C18.9,81.3,108.3,1.5,216.4,1.5C335,1.5,431.2,97.7,431.2,216.3z"/>
	<g id="Layer_1-2">
		<polygon class="st1" points="129.8,163.3 295.1,83.4 370.8,142.8 261.3,261.5 		"/>
		<path class="st1" d="M188.6,416l-26.7,8.2l0,0c-19.5-5.1-37.9-12.8-54.8-22.8c-0.6-0.4-1.3-0.8-1.9-1.1c-2.5-1.5-4.9-3.1-7.4-4.7
			c-1.2-0.8-2.4-1.6-3.6-2.4c-1.2-0.8-2.4-1.7-3.6-2.5c-0.6-0.4-1.2-0.9-1.8-1.3c-1.2-0.9-2.3-1.7-3.5-2.6c-1.1-0.9-2.3-1.8-3.4-2.7
			c-1.7-1.4-3.4-2.7-5-4.2c-1.1-0.9-2.2-1.9-3.3-2.8c-1.1-1-2.1-1.9-3.2-2.9C28.1,334.9,1.5,278.7,1.5,216.3
			c0-10.4,0.8-20.9,2.3-31.2l60.3-29c-0.8,0.7-1.3,1.5-1.6,2.5c-0.1,0.3-0.1,0.7-0.1,1c-1.1,23.8-1,74.2,17.1,126.8
			c0.4,1.2,0.8,2.4,1.3,3.5c2.1,5.9,4.5,11.8,7.1,17.7l0,0c0.5,1.2,1.1,2.3,1.6,3.5l0,0c0.8,1.8,1.6,3.5,2.5,5.3
			c0.3,0.6,0.6,1.2,0.9,1.8c0.6,1.2,1.2,2.3,1.8,3.5c0.6,1.2,1.2,2.3,1.9,3.5c1.3,2.3,2.6,4.7,3.9,7l0,0c0.7,1.1,1.4,2.3,2.1,3.5
			c0.3,0.6,0.7,1.2,1.1,1.7c0.7,1.1,1.4,2.3,2.2,3.4c0.7,1.1,1.5,2.3,2.3,3.4c1.1,1.7,2.3,3.4,3.5,5.1c8,11.3,17.2,22.2,27.8,32.4
			c2.7,2.6,5.5,5,8.5,7.4c1,0.8,2,1.6,3,2.4c1.5,1.2,3,2.3,4.6,3.5c10.8,7.9,22.3,14.7,32.3,20.3C187.8,415.7,188.2,415.9,188.6,416
			z"/>
		<path class="st2" d="M431.2,216.3c0,118.6-96.2,214.8-214.9,214.8c-18.4,0-36.7-2.3-54.4-7c0,0,0,0,0,0
			c-19.5-5.1-37.9-12.8-54.8-22.8c-0.6-0.4-1.3-0.8-1.9-1.1c-2.5-1.5-4.9-3.1-7.4-4.7c-1.2-0.8-2.4-1.6-3.6-2.4
			c-1.2-0.8-2.4-1.7-3.6-2.5c-0.6-0.4-1.2-0.9-1.8-1.3c-1.2-0.9-2.3-1.7-3.5-2.6c-1.1-0.9-2.3-1.8-3.4-2.7c-1.7-1.4-3.4-2.7-5-4.2
			c-1.1-0.9-2.2-1.9-3.3-2.8c-1.1-1-2.1-1.9-3.2-2.9C28.1,334.9,1.5,278.7,1.5,216.3c0-10.4,0.8-20.9,2.3-31.2
			C18.9,81.3,108.3,1.5,216.4,1.5C335,1.5,431.2,97.7,431.2,216.3z"/>
		<path class="st3" d="M308.3,224.8l-33.1,33.4c-3-4.3-13.5-5.4-22.7-5.5c-8-0.1-15,0.7-15,0.7l-5.6,9c1.5,2.2,3.2,4.2,5.1,6
			c4.4,4.3,11.3,9.4,19.3,8.9l-48.4,48.9c-7.4,7.5-19.6,7.6-27.1,0.1c0,0,0,0,0,0l-52.2-51.7c-7.5-7.4-7.6-19.6-0.1-27.1L229,146.1
			c7.4-7.4,19.5-7.5,27-0.1l46,45.6l-22.3,23.7l-10.5,11.1l9.5,2l30.2-30.1C315.7,206,315.4,217.5,308.3,224.8z"/>
		<path class="st4" d="M269.2,226.5l7.3,1.5c-0.7,1-1.4,1.9-2.2,2.7l-21.8,22L237,268.4L213.5,292c-7.4,7.5-19.6,7.6-27.1,0.1
			c0,0,0,0,0,0l-23.8-23.6c-7.5-7.4-7.6-19.6-0.1-27.1l60.8-61.3c7.4-7.5,19.6-7.6,27.1-0.1l23.8,23.6c3.2,3.1,5.1,7.3,5.6,11.7
			L269.2,226.5z"/>
		<path class="st5" d="M369.5,138.5l-52.2-51.7c-7.5-7.4-19.6-7.4-27.1,0.1l-45,45.4c5.2,0.5,11.6,2.8,19.4,8.8l20-20.1
			c7.4-7.5,19.6-7.6,27.1-0.1c0,0,0,0,0,0l23.8,23.6c7.5,7.4,7.6,19.6,0.1,27.1c0,0,0,0,0,0l-60.8,61.3c-7.4,7.5-19.6,7.6-27.1,0.1
			c0,0,0,0,0,0l-23.8-23.6c-3.6-3.5-5.6-8.3-5.7-13.3l-23.9,23.7l47.6,47.3c7.5,7.4,19.6,7.4,27.1-0.1l100.5-101.3
			C377,158.1,377,146,369.5,138.5C369.5,138.5,369.5,138.5,369.5,138.5z"/>
		<path class="st6" d="M370.7,200.7c-5.7,32.5-33.1,159.5-134.4,202.2c-13.5,5.7-26.2,11.1-45.8,13.3c-0.6,0.1-1.3,0-1.9-0.2
			L64,156.2c1.1-1,2.6-1.4,4-1.2l104.3,13.9l194.2,26c2.7,0.4,4.6,2.9,4.2,5.7C370.7,200.6,370.7,200.7,370.7,200.7z"/>
		<path class="st5" d="M188.6,416c-0.4-0.1-0.7-0.3-1.1-0.5c-15.2-8.6-34.1-19.9-48.3-33.6c-77.5-74.3-78.7-183.4-76.9-222.2
			c0.1-1.4,0.7-2.6,1.7-3.5c1.1-1,2.6-1.4,4-1.2l104.3,13.9c-1.9,3.5-3.6,7.1-5.2,10.6C130.7,260.6,158.7,352.2,188.6,416z"/>
	</g>
</g>
</svg>
